<mxfile host="app.diagrams.net" modified="2023-08-29T00:08:44.477Z" agent="Mozilla/5.0 (Macintosh; Intel Mac OS X 10_15_7) AppleWebKit/537.36 (KHTML, like Gecko) Chrome/114.0.0.0 Safari/537.36" etag="1ypxvMj1X2kaedR1YxY4" version="21.6.8" type="google">
  <diagram name="Страница — 1" id="sY2iR0W5hhZkjc2yTTeJ">
    <mxGraphModel grid="1" page="1" gridSize="10" guides="1" tooltips="1" connect="1" arrows="1" fold="1" pageScale="1" pageWidth="413" pageHeight="583" math="0" shadow="0">
      <root>
        <mxCell id="0" />
        <mxCell id="1" parent="0" />
        <mxCell id="v48ywbRgcgNwgZE6qsPC-1" value="" style="shape=umlActor;verticalLabelPosition=bottom;verticalAlign=top;html=1;outlineConnect=0;strokeColor=#1A1A1A;" vertex="1" parent="1">
          <mxGeometry x="40" y="440" width="30" height="60" as="geometry" />
        </mxCell>
        <mxCell id="v48ywbRgcgNwgZE6qsPC-7" value="" style="rounded=0;whiteSpace=wrap;html=1;dashed=1;opacity=50;strokeColor=#0066CC;" vertex="1" parent="1">
          <mxGeometry x="140" y="60" width="335" height="290" as="geometry" />
        </mxCell>
        <mxCell id="v48ywbRgcgNwgZE6qsPC-8" value="&lt;font color=&quot;#007fff&quot; style=&quot;font-size: 20px;&quot;&gt;Watch Together service&lt;/font&gt;" style="text;html=1;align=center;verticalAlign=middle;resizable=0;points=[];autosize=1;strokeColor=none;fillColor=none;" vertex="1" parent="1">
          <mxGeometry x="192.5" y="20" width="230" height="40" as="geometry" />
        </mxCell>
        <mxCell id="v48ywbRgcgNwgZE6qsPC-11" value="matches api" style="rounded=1;whiteSpace=wrap;html=1;strokeColor=#00CCCC;" vertex="1" parent="1">
          <mxGeometry x="180" y="100" width="120" height="30" as="geometry" />
        </mxCell>
        <mxCell id="v48ywbRgcgNwgZE6qsPC-12" value="rooms api" style="rounded=1;whiteSpace=wrap;html=1;strokeColor=#00CCCC;" vertex="1" parent="1">
          <mxGeometry x="187.5" y="180" width="120" height="30" as="geometry" />
        </mxCell>
        <mxCell id="v48ywbRgcgNwgZE6qsPC-13" value="websocket" style="rounded=1;whiteSpace=wrap;html=1;strokeColor=#00CC66;" vertex="1" parent="1">
          <mxGeometry x="147.5" y="275" width="120" height="30" as="geometry" />
        </mxCell>
        <mxCell id="v48ywbRgcgNwgZE6qsPC-14" value="MongoDB" style="shape=datastore;whiteSpace=wrap;html=1;strokeColor=#666600;" vertex="1" parent="1">
          <mxGeometry x="365" y="260" width="60" height="60" as="geometry" />
        </mxCell>
        <mxCell id="v48ywbRgcgNwgZE6qsPC-21" value="" style="shape=actor;whiteSpace=wrap;html=1;strokeColor=#1A1A1A;" vertex="1" parent="1">
          <mxGeometry x="267.5" y="420" width="40" height="60" as="geometry" />
        </mxCell>
        <mxCell id="v48ywbRgcgNwgZE6qsPC-29" value="&lt;font color=&quot;#007fff&quot; style=&quot;font-size: 15px;&quot;&gt;Notifications service&lt;/font&gt;" style="rounded=0;whiteSpace=wrap;html=1;strokeColor=#66B2FF;" vertex="1" parent="1">
          <mxGeometry x="550" y="380" width="190" height="70" as="geometry" />
        </mxCell>
        <mxCell id="v48ywbRgcgNwgZE6qsPC-30" value="&lt;font color=&quot;#007fff&quot; style=&quot;font-size: 15px;&quot;&gt;Friends service&lt;/font&gt;" style="rounded=0;whiteSpace=wrap;html=1;strokeColor=#66B2FF;" vertex="1" parent="1">
          <mxGeometry x="600" y="60" width="150" height="60" as="geometry" />
        </mxCell>
        <mxCell id="v48ywbRgcgNwgZE6qsPC-31" value="&lt;font color=&quot;#007fff&quot; style=&quot;font-size: 15px;&quot;&gt;Changeable UGC service&lt;/font&gt;" style="rounded=0;whiteSpace=wrap;html=1;strokeColor=#66B2FF;" vertex="1" parent="1">
          <mxGeometry x="619" y="190" width="150" height="60" as="geometry" />
        </mxCell>
        <mxCell id="v48ywbRgcgNwgZE6qsPC-33" value="" style="shape=actor;whiteSpace=wrap;html=1;strokeColor=#1C1C1C;" vertex="1" parent="1">
          <mxGeometry x="200" y="470" width="40" height="60" as="geometry" />
        </mxCell>
        <mxCell id="v48ywbRgcgNwgZE6qsPC-39" value="" style="curved=1;endArrow=classic;html=1;rounded=0;entryX=0;entryY=0.5;entryDx=0;entryDy=0;" edge="1" parent="1" target="v48ywbRgcgNwgZE6qsPC-11">
          <mxGeometry width="50" height="50" relative="1" as="geometry">
            <mxPoint x="30" y="430" as="sourcePoint" />
            <mxPoint x="140" y="390" as="targetPoint" />
            <Array as="points">
              <mxPoint x="10" y="190" />
            </Array>
          </mxGeometry>
        </mxCell>
        <mxCell id="v48ywbRgcgNwgZE6qsPC-45" value="get matches" style="edgeLabel;html=1;align=center;verticalAlign=middle;resizable=0;points=[];" vertex="1" connectable="0" parent="v48ywbRgcgNwgZE6qsPC-39">
          <mxGeometry x="0.3573" y="-8" relative="1" as="geometry">
            <mxPoint x="11" y="28" as="offset" />
          </mxGeometry>
        </mxCell>
        <mxCell id="v48ywbRgcgNwgZE6qsPC-40" value="" style="curved=1;endArrow=classic;html=1;rounded=0;entryX=0;entryY=0.25;entryDx=0;entryDy=0;" edge="1" parent="1">
          <mxGeometry width="50" height="50" relative="1" as="geometry">
            <mxPoint x="70" y="432.5" as="sourcePoint" />
            <mxPoint x="187.5" y="190" as="targetPoint" />
            <Array as="points">
              <mxPoint x="80" y="272.5" />
            </Array>
          </mxGeometry>
        </mxCell>
        <mxCell id="v48ywbRgcgNwgZE6qsPC-46" value="create room" style="edgeLabel;html=1;align=center;verticalAlign=middle;resizable=0;points=[];" vertex="1" connectable="0" parent="v48ywbRgcgNwgZE6qsPC-40">
          <mxGeometry x="0.3884" y="-14" relative="1" as="geometry">
            <mxPoint x="-34" y="34" as="offset" />
          </mxGeometry>
        </mxCell>
        <mxCell id="v48ywbRgcgNwgZE6qsPC-47" style="edgeStyle=orthogonalEdgeStyle;rounded=0;orthogonalLoop=1;jettySize=auto;html=1;exitX=0.5;exitY=1;exitDx=0;exitDy=0;" edge="1" parent="1" source="v48ywbRgcgNwgZE6qsPC-7" target="v48ywbRgcgNwgZE6qsPC-7">
          <mxGeometry relative="1" as="geometry" />
        </mxCell>
        <mxCell id="v48ywbRgcgNwgZE6qsPC-48" value="" style="curved=1;endArrow=classic;html=1;rounded=0;entryX=0.5;entryY=0;entryDx=0;entryDy=0;strokeColor=#4D4D4D;" edge="1" parent="1" target="v48ywbRgcgNwgZE6qsPC-14">
          <mxGeometry width="50" height="50" relative="1" as="geometry">
            <mxPoint x="310" y="200" as="sourcePoint" />
            <mxPoint x="360" y="150" as="targetPoint" />
            <Array as="points">
              <mxPoint x="370" y="210" />
            </Array>
          </mxGeometry>
        </mxCell>
        <mxCell id="v48ywbRgcgNwgZE6qsPC-49" value="&lt;font color=&quot;#4d4d4d&quot;&gt;write/get room&lt;/font&gt;" style="edgeLabel;html=1;align=center;verticalAlign=middle;resizable=0;points=[];" vertex="1" connectable="0" parent="v48ywbRgcgNwgZE6qsPC-48">
          <mxGeometry x="-0.2251" y="-8" relative="1" as="geometry">
            <mxPoint x="27" y="5" as="offset" />
          </mxGeometry>
        </mxCell>
        <mxCell id="v48ywbRgcgNwgZE6qsPC-50" value="" style="curved=1;endArrow=classic;html=1;rounded=0;exitX=1;exitY=0.5;exitDx=0;exitDy=0;entryX=0;entryY=0.7;entryDx=0;entryDy=0;strokeColor=#4D4D4D;" edge="1" parent="1" source="v48ywbRgcgNwgZE6qsPC-13" target="v48ywbRgcgNwgZE6qsPC-14">
          <mxGeometry width="50" height="50" relative="1" as="geometry">
            <mxPoint x="280" y="300" as="sourcePoint" />
            <mxPoint x="330" y="250" as="targetPoint" />
          </mxGeometry>
        </mxCell>
        <mxCell id="v48ywbRgcgNwgZE6qsPC-51" value="&lt;font color=&quot;#4d4d4d&quot;&gt;update room&lt;/font&gt;" style="edgeLabel;html=1;align=center;verticalAlign=middle;resizable=0;points=[];" vertex="1" connectable="0" parent="v48ywbRgcgNwgZE6qsPC-50">
          <mxGeometry x="-0.1448" relative="1" as="geometry">
            <mxPoint x="9" y="-15" as="offset" />
          </mxGeometry>
        </mxCell>
        <mxCell id="v48ywbRgcgNwgZE6qsPC-52" value="" style="curved=1;endArrow=classic;html=1;rounded=0;entryX=0.25;entryY=1;entryDx=0;entryDy=0;" edge="1" parent="1" target="v48ywbRgcgNwgZE6qsPC-13">
          <mxGeometry width="50" height="50" relative="1" as="geometry">
            <mxPoint x="80" y="460" as="sourcePoint" />
            <mxPoint x="330" y="340" as="targetPoint" />
          </mxGeometry>
        </mxCell>
        <mxCell id="v48ywbRgcgNwgZE6qsPC-53" value="" style="curved=1;endArrow=classic;html=1;rounded=0;exitX=0.5;exitY=0;exitDx=0;exitDy=0;entryX=0.5;entryY=1;entryDx=0;entryDy=0;" edge="1" parent="1" source="v48ywbRgcgNwgZE6qsPC-33" target="v48ywbRgcgNwgZE6qsPC-13">
          <mxGeometry width="50" height="50" relative="1" as="geometry">
            <mxPoint x="215" y="460" as="sourcePoint" />
            <mxPoint x="205.39947368421053" y="300" as="targetPoint" />
          </mxGeometry>
        </mxCell>
        <mxCell id="v48ywbRgcgNwgZE6qsPC-54" value="" style="curved=1;endArrow=classic;html=1;rounded=0;entryX=0.75;entryY=1;entryDx=0;entryDy=0;" edge="1" parent="1" source="v48ywbRgcgNwgZE6qsPC-21" target="v48ywbRgcgNwgZE6qsPC-13">
          <mxGeometry width="50" height="50" relative="1" as="geometry">
            <mxPoint x="230" y="490" as="sourcePoint" />
            <mxPoint x="221" y="315" as="targetPoint" />
          </mxGeometry>
        </mxCell>
        <mxCell id="v48ywbRgcgNwgZE6qsPC-56" value="" style="curved=1;endArrow=classic;html=1;rounded=0;entryX=0.69;entryY=0.004;entryDx=0;entryDy=0;entryPerimeter=0;exitX=0.854;exitY=1.014;exitDx=0;exitDy=0;exitPerimeter=0;" edge="1" parent="1" source="v48ywbRgcgNwgZE6qsPC-13" target="v48ywbRgcgNwgZE6qsPC-21">
          <mxGeometry width="50" height="50" relative="1" as="geometry">
            <mxPoint x="354.6" y="540" as="sourcePoint" />
            <mxPoint x="339.99947368421056" y="370" as="targetPoint" />
          </mxGeometry>
        </mxCell>
        <mxCell id="v48ywbRgcgNwgZE6qsPC-57" value="" style="curved=1;endArrow=classic;html=1;rounded=0;entryX=0.725;entryY=0.011;entryDx=0;entryDy=0;entryPerimeter=0;exitX=0.557;exitY=1.13;exitDx=0;exitDy=0;exitPerimeter=0;" edge="1" parent="1" source="v48ywbRgcgNwgZE6qsPC-13" target="v48ywbRgcgNwgZE6qsPC-33">
          <mxGeometry width="50" height="50" relative="1" as="geometry">
            <mxPoint x="210" y="290" as="sourcePoint" />
            <mxPoint x="305" y="430" as="targetPoint" />
          </mxGeometry>
        </mxCell>
        <mxCell id="v48ywbRgcgNwgZE6qsPC-58" value="" style="curved=1;endArrow=classic;html=1;rounded=0;exitX=0.331;exitY=0.986;exitDx=0;exitDy=0;exitPerimeter=0;" edge="1" parent="1" source="v48ywbRgcgNwgZE6qsPC-13">
          <mxGeometry width="50" height="50" relative="1" as="geometry">
            <mxPoint x="272" y="325" as="sourcePoint" />
            <mxPoint x="80" y="490" as="targetPoint" />
          </mxGeometry>
        </mxCell>
        <mxCell id="v48ywbRgcgNwgZE6qsPC-71" value="control player and chat&amp;nbsp;" style="edgeLabel;html=1;align=center;verticalAlign=middle;resizable=0;points=[];" vertex="1" connectable="0" parent="v48ywbRgcgNwgZE6qsPC-58">
          <mxGeometry x="-0.1961" y="2" relative="1" as="geometry">
            <mxPoint x="62" as="offset" />
          </mxGeometry>
        </mxCell>
        <mxCell id="v48ywbRgcgNwgZE6qsPC-59" value="" style="curved=1;endArrow=classic;html=1;rounded=0;exitX=0.562;exitY=1.014;exitDx=0;exitDy=0;exitPerimeter=0;entryX=1.11;entryY=0.863;entryDx=0;entryDy=0;entryPerimeter=0;" edge="1" parent="1" source="v48ywbRgcgNwgZE6qsPC-29" target="v48ywbRgcgNwgZE6qsPC-33">
          <mxGeometry width="50" height="50" relative="1" as="geometry">
            <mxPoint x="440" y="520" as="sourcePoint" />
            <mxPoint x="260" y="530" as="targetPoint" />
            <Array as="points">
              <mxPoint x="450" y="590" />
            </Array>
          </mxGeometry>
        </mxCell>
        <mxCell id="v48ywbRgcgNwgZE6qsPC-62" value="invitation" style="edgeLabel;html=1;align=center;verticalAlign=middle;resizable=0;points=[];" vertex="1" connectable="0" parent="v48ywbRgcgNwgZE6qsPC-59">
          <mxGeometry x="0.2667" y="-24" relative="1" as="geometry">
            <mxPoint as="offset" />
          </mxGeometry>
        </mxCell>
        <mxCell id="v48ywbRgcgNwgZE6qsPC-60" value="" style="curved=1;endArrow=classic;html=1;rounded=0;" edge="1" parent="1" target="v48ywbRgcgNwgZE6qsPC-21">
          <mxGeometry width="50" height="50" relative="1" as="geometry">
            <mxPoint x="600" y="460" as="sourcePoint" />
            <mxPoint x="254" y="532" as="targetPoint" />
            <Array as="points">
              <mxPoint x="460" y="570" />
            </Array>
          </mxGeometry>
        </mxCell>
        <mxCell id="v48ywbRgcgNwgZE6qsPC-61" value="invitation" style="edgeLabel;html=1;align=center;verticalAlign=middle;resizable=0;points=[];" vertex="1" connectable="0" parent="v48ywbRgcgNwgZE6qsPC-60">
          <mxGeometry x="0.0999" y="-39" relative="1" as="geometry">
            <mxPoint x="-39" y="-10" as="offset" />
          </mxGeometry>
        </mxCell>
        <mxCell id="v48ywbRgcgNwgZE6qsPC-63" value="" style="curved=1;endArrow=classic;html=1;rounded=0;exitX=1;exitY=0.75;exitDx=0;exitDy=0;entryX=0;entryY=0.25;entryDx=0;entryDy=0;" edge="1" parent="1" source="v48ywbRgcgNwgZE6qsPC-11" target="v48ywbRgcgNwgZE6qsPC-31">
          <mxGeometry width="50" height="50" relative="1" as="geometry">
            <mxPoint x="260" y="315" as="sourcePoint" />
            <mxPoint x="560" y="380" as="targetPoint" />
            <Array as="points">
              <mxPoint x="460" y="150" />
            </Array>
          </mxGeometry>
        </mxCell>
        <mxCell id="v48ywbRgcgNwgZE6qsPC-64" value="get bookamrks" style="edgeLabel;html=1;align=center;verticalAlign=middle;resizable=0;points=[];" vertex="1" connectable="0" parent="v48ywbRgcgNwgZE6qsPC-63">
          <mxGeometry x="0.4696" y="-11" relative="1" as="geometry">
            <mxPoint x="1" y="-5" as="offset" />
          </mxGeometry>
        </mxCell>
        <mxCell id="v48ywbRgcgNwgZE6qsPC-65" value="" style="curved=1;endArrow=classic;html=1;rounded=0;exitX=0.927;exitY=-0.06;exitDx=0;exitDy=0;entryX=0.28;entryY=-0.071;entryDx=0;entryDy=0;exitPerimeter=0;entryPerimeter=0;" edge="1" parent="1" target="v48ywbRgcgNwgZE6qsPC-29">
          <mxGeometry width="50" height="50" relative="1" as="geometry">
            <mxPoint x="309" y="188" as="sourcePoint" />
            <mxPoint x="578" y="400" as="targetPoint" />
            <Array as="points">
              <mxPoint x="470" y="160" />
            </Array>
          </mxGeometry>
        </mxCell>
        <mxCell id="v48ywbRgcgNwgZE6qsPC-66" value="send invites" style="edgeLabel;html=1;align=center;verticalAlign=middle;resizable=0;points=[];" vertex="1" connectable="0" parent="v48ywbRgcgNwgZE6qsPC-65">
          <mxGeometry x="0.4696" y="-11" relative="1" as="geometry">
            <mxPoint as="offset" />
          </mxGeometry>
        </mxCell>
        <mxCell id="v48ywbRgcgNwgZE6qsPC-67" value="" style="curved=1;endArrow=classic;html=1;rounded=0;entryX=0;entryY=0.5;entryDx=0;entryDy=0;exitX=1;exitY=0.25;exitDx=0;exitDy=0;" edge="1" parent="1" source="v48ywbRgcgNwgZE6qsPC-11" target="v48ywbRgcgNwgZE6qsPC-30">
          <mxGeometry width="50" height="50" relative="1" as="geometry">
            <mxPoint x="310" y="120" as="sourcePoint" />
            <mxPoint x="610" y="215" as="targetPoint" />
            <Array as="points">
              <mxPoint x="430" y="108" />
            </Array>
          </mxGeometry>
        </mxCell>
        <mxCell id="v48ywbRgcgNwgZE6qsPC-69" value="get friends list" style="edgeLabel;html=1;align=center;verticalAlign=middle;resizable=0;points=[];" vertex="1" connectable="0" parent="v48ywbRgcgNwgZE6qsPC-67">
          <mxGeometry x="0.1336" y="2" relative="1" as="geometry">
            <mxPoint x="-34" as="offset" />
          </mxGeometry>
        </mxCell>
        <mxCell id="v48ywbRgcgNwgZE6qsPC-73" value="Creator" style="text;html=1;align=center;verticalAlign=middle;resizable=0;points=[];autosize=1;strokeColor=none;fillColor=none;" vertex="1" parent="1">
          <mxGeometry x="20" y="500" width="60" height="30" as="geometry" />
        </mxCell>
        <mxCell id="v48ywbRgcgNwgZE6qsPC-74" value="friend" style="text;html=1;align=center;verticalAlign=middle;resizable=0;points=[];autosize=1;strokeColor=none;fillColor=none;" vertex="1" parent="1">
          <mxGeometry x="195" y="530" width="50" height="30" as="geometry" />
        </mxCell>
        <mxCell id="v48ywbRgcgNwgZE6qsPC-75" value="friend" style="text;html=1;align=center;verticalAlign=middle;resizable=0;points=[];autosize=1;strokeColor=none;fillColor=none;" vertex="1" parent="1">
          <mxGeometry x="262.5" y="480" width="50" height="30" as="geometry" />
        </mxCell>
        <mxCell id="WIZFsd875ewmiDLUWpDk-2" value="" style="rounded=0;whiteSpace=wrap;html=1;opacity=0;" vertex="1" parent="1">
          <mxGeometry width="800" height="590" as="geometry" />
        </mxCell>
      </root>
    </mxGraphModel>
  </diagram>
</mxfile>
